<svg id="Layer_1" enable-background="new 0 0 496.016 496.016" height="512" viewBox="0 0 496.016 496.016" width="512" xmlns="http://www.w3.org/2000/svg"><path d="m445.346 128.646c0 13.25-6.59 24.95-16.68 32.02-26.106 108.641-30.666 123.442-38.55 242.36-2.88 43.32-38.85 76.99-82.27 76.99h-85.91c-29.09 0-56.04-15.34-70.89-40.35l-65.38-110.11c-20.41-2.11-36.15-19.92-34.93-41.16 1.11-19.45 16.78-35.33 36.23-36.67 25.176-1.753 43.457 20.301 41.84 39.7l25.45 25.44c8.13 8.14 21.94 1.2 20.27-10.18l-24.13-164.57c-26.342-22.758-11.736-66.129 22.75-68.54 33.43-2.326 53.772 35.485 34.38 62l20.33 140.82c1.65 11.45 13.52 18.39 24.31 14.23 7.094-2.74 12.037-9.791 11.48-18.14-3.75-50.2-14-187.87-14-187.87-26.324-22.824-11.601-66.11 22.8-68.5 33.487-2.33 53.756 35.536 34.35 62.04l13.86 187.17c.978 13.274 20.068 15.226 23.41 2.05 8.02-31.73 28.42-119.06 28.42-119.06-14.683-25.165 2.644-56.739 31.07-58.65 22.81-1.54 41.79 16.5 41.79 38.98z" fill="#befa91"/><g fill="#d0ffad"><path d="m174.256 320.475c-1.887-1.887-2.058-4.38-.962-6.418 2.596-4.827 3.452 7.767-22.898-171.941-21.884-18.907-16.573-54.884 11.357-65.936 7.101-2.81 12.785 6.283 7.286 11.583-14.384 13.862-17.178 38.215-2.067 54.648 2.211 2.405 3.725 5.367 4.199 8.599l23.355 159.286c1.67 11.379-12.14 18.32-20.27 10.179z"/><path d="m101.46 272.613c-13.679.713-26.521 8.727-33.051 20.82-4.708 8.718-18.285 5.59-17.673-5.038 1.501-26.309 28.851-44.196 53.941-33.816 9.319 3.856 6.855 17.51-3.217 18.034z"/><path d="m263.785 84.785c2.375 2.608 3.721 6 3.983 9.518 14.569 195.674 14.296 183.72 12.789 188.573-3.39 10.92-19.91 6.174-17.34-4.968.904-3.918 1.561 9.954-13.571-193.292-18.619-16.143-18.048-45.726 2.313-60.841 6.946-5.157 15.763 3.693 10.446 10.517-10.985 14.099-12.333 35.437 1.38 50.493z"/><path d="m399.925 90.096c5.398-.931 7.804 6.585 2.805 8.823-19.693 8.817-28.589 31.638-20.079 51.275 1.324 3.055 1.536 6.474.777 9.716-4.63 19.768-20.315 86.578-27.111 113.465-1.174 4.628-4.54 7.53-8.387 8.553-5.769 1.535-9.815-5.397-6.091-10.062 1.884-2.36 1.008 3.334 30.648-123.551-13.476-23.095-.247-53.443 27.438-58.219z"/></g><path d="m402.474 73.7c-37.378 2.526-61.807 41.58-46.874 76.569-3.516 15.007-13.397 57.09-20.896 88.14l-11.557-156.1c12.631-22.137 8.219-50.189-10.336-67.497-33.917-31.642-89.849-9.468-92.546 37.021-.863 14.862 4.139 29.067 13.875 39.929 0 .005 13.545 181.918 13.55 181.918.118 1.591-1.604 2.705-3.021 1.877-1.243-.727.442 8.36-20.463-136.426 20.899-37.797-8.319-84.559-52.176-81.513-46.013 3.207-67.662 58.537-36.682 92.166l21.574 147.126-12.459-12.459c-3.282-28.468-28.217-50.783-58.605-48.69-27.549 1.907-49.516 24.144-51.096 51.724-1.524 26.584 15.91 49.905 40.837 56.461l61.688 103.886c17.649 29.722 50.086 48.186 84.653 48.186h85.904c51.665 0 94.816-40.382 98.237-91.934 7.7-116.009 12.309-132.205 36.864-234.348 38.727-34.6 12.089-99.583-40.471-96.036zm17.015 73.862c-3.197 2.24-5.466 5.57-6.378 9.366-28.978 120.54-31.623 134.485-38.96 245.035-2.309 34.796-31.435 62.053-66.307 62.053h-85.904c-23.332 0-45.226-12.462-57.139-32.524l-65.379-110.101c-2.584-4.352-7.076-7.225-12.111-7.746-12.262-1.269-21.312-11.956-20.603-24.33.667-11.633 10.612-21.689 23.033-21.689 12.689 0 23.081 10.231 23.081 23.076-.019 5.114 1.615 8.978 4.675 12.038l25.442 25.442c19.05 19.05 51.319 2.781 47.418-23.819l-24.131-164.565c-.557-3.801-2.463-7.274-5.37-9.785-15.788-13.641-6.524-39.083 13.399-40.471 19.651-1.378 31.882 20.824 20.355 36.597-2.469 3.377-3.516 7.587-2.918 11.728l20.332 140.817c3.126 21.644 25.548 34.731 45.908 26.868 14.084-5.437 22.792-19.201 21.669-34.25-3.744-50.207-13.993-187.87-13.993-187.87-.314-4.216-2.284-8.136-5.479-10.904-5.453-4.725-8.339-11.591-7.918-18.84 1.099-18.952 24.304-28.969 38.772-15.475 8.806 8.215 9.595 21.365 2.908 30.489-2.251 3.071-3.333 6.843-3.052 10.64l13.858 187.172c1.598 21.59 26.221 33.23 43.921 20.737 5.438-3.839 9.331-9.505 10.96-15.952 7.962-31.506 28.289-118.47 28.493-119.345 2.443-10.457-5.306-12.241-4.862-24.202.722-19.434 24.296-29.538 38.813-15.968 10.826 10.12 9.371 27.441-2.533 35.778z"/></svg>