<svg height="512pt" viewBox="0 0 512 512" width="512pt" xmlns="http://www.w3.org/2000/svg"><path d="m437.019531 74.980469c-48.351562-48.351563-112.640625-74.980469-181.019531-74.980469s-132.667969 26.628906-181.019531 74.980469c-48.351563 48.351562-74.980469 112.640625-74.980469 181.019531s26.628906 132.667969 74.980469 181.019531c48.351562 48.351563 112.640625 74.980469 181.019531 74.980469s132.667969-26.628906 181.019531-74.980469c48.351563-48.351562 74.980469-112.640625 74.980469-181.019531s-26.628906-132.667969-74.980469-181.019531zm-181.019531 407.019531c-124.617188 0-226-101.382812-226-226s101.382812-226 226-226 226 101.382812 226 226-101.382812 226-226 226zm0 0"/><path d="m208.230469 256.660156 21.210937-21.214844-31.472656-31.472656 31.472656-31.472656-21.210937-21.210938-31.472657 31.472657-31.476562-31.472657-21.210938 21.210938 31.472657 31.472656-31.472657 31.472656 21.210938 21.214844 31.476562-31.472656zm0 0"/><path d="m366.71875 151.289062-31.476562 31.472657-31.472657-31.472657-21.210937 21.210938 31.472656 31.472656-31.472656 31.472656 21.210937 21.214844 31.472657-31.472656 31.476562 31.472656 21.210938-21.214844-31.472657-31.472656 31.472657-31.472656zm0 0"/><path d="m256 284.859375c-38.542969 0-69.902344 31.359375-69.902344 69.902344 0 38.546875 31.359375 69.902343 69.902344 69.902343s69.902344-31.355468 69.902344-69.902343c0-38.542969-31.359375-69.902344-69.902344-69.902344zm0 109.808594c-22.003906 0-39.902344-17.902344-39.902344-39.902344 0-22.003906 17.898438-39.902344 39.902344-39.902344s39.902344 17.898438 39.902344 39.902344c0 22-17.898438 39.902344-39.902344 39.902344zm0 0"/></svg>